#!OML:ASF H:\Terrain\Walking\May29\JustinRory\rory.ASF
:FULLY-SPECIFIED
:DEGREES
341
root 5.71833 17.3545 1.42359 -20.9767 -45.1167 23.5277
lowerback 13.8654 -3.16228 -2.91655
upperback 6.04766 -4.62863 3.91925
thorax -0.797807 -2.50529 6.41472
lowerneck -1.64715 11.7063 13.5395
upperneck 14.6627 18.3741 -21.1838
head 8.0772 8.42247 -7.5478
rclavicle 9.62118e-014 -4.13472e-014
rhumerus -31.5288 -13.9399 -45.0026
rradius 39.0915
rwrist -12.4602
rhand -14.572 32.9828
rfingers 7.12502
rthumb 11.5775 3.3226
lclavicle 9.62118e-014 -4.13472e-014
lhumerus -25.2053 -19.8669 68.8865
lradius 47.787
lwrist -10.4135
lhand 1.81663 17.1777
lfingers 7.12502
lthumb 27.3292 45.2167
rfemur -35.7733 -1.05426 5.06219
rtibia 73.285
rfoot -6.5415 -14.1279
rtoes 25.8316
lfemur -20.4127 2.74797 -26.5063
ltibia 37.3781
lfoot -9.13702 -3.01669
ltoes -13.587
342
root 5.68581 17.3557 1.57476 -20.9817 -44.7324 23.6879
lowerback 13.6465 -3.2013 -2.98896
upperback 5.91597 -4.67913 3.85375
thorax -0.81327 -2.52411 6.38084
lowerneck -1.41911 11.6148 13.0595
upperneck 14.8892 18.2763 -20.9576
head 8.01647 8.36504 -7.42566
rclavicle 3.65764e-014 6.36111e-015
rhumerus -31.7223 -13.408 -44.6812
rradius 39.0219
rwrist -12.9264
rhand -16.0483 32.5496
rfingers 7.12502
rthumb 10.1535 2.81458
lclavicle 3.65764e-014 6.36111e-015
lhumerus -24.9373 -21.0259 68.7576
lradius 47.8436
lwrist -9.09024
lhand 0.526198 18.197
lfingers 7.12502
lthumb 26.0943 46.4243
rfemur -36.4556 -1.29602 4.88526
rtibia 74.4741
rfoot -6.64474 -15.3173
rtoes 25.4297
lfemur -20.3094 2.49383 -27.0579
ltibia 37.8114
lfoot -9.70091 -3.29195
ltoes -14.715
343
root 5.63762 17.3682 1.73024 -20.9942 -44.6509 23.6656
lowerback 13.4089 -3.21131 -3.06942
upperback 5.84297 -4.69515 3.90459
thorax -0.749219 -2.53357 6.46694
lowerneck -1.39489 11.5369 12.4284
upperneck 15.4049 18.1963 -20.5187
head 8.05518 8.29199 -7.19458
rclavicle 5.56597e-014 -6.04305e-014
rhumerus -31.8621 -13.4451 -44.2002
rradius 38.7961
rwrist -12.4801
rhand -16.9334 32.6209
rfingers 7.12502
rthumb 9.29965 2.84606
lclavicle 5.56597e-014 -6.04305e-014
lhumerus -24.7714 -21.6559 68.7578
lradius 47.7669
lwrist -8.40754
lhand -1.24971 18.8306
lfingers 7.12502
lthumb 24.3928 47.2979
rfemur -36.9717 -1.21074 5.06309
rtibia 75.3827
rfoot -6.57122 -16.2907
rtoes 22.5691
lfemur -20.0116 2.62954 -27.3505
ltibia 38.2337
lfoot -10.2649 -3.65118
ltoes -14.741
344
root 5.59266 17.3974 1.89499 -20.4634 -44.814 22.8284
lowerback 13.1704 -3.33502 -2.39587
upperback 5.78404 -4.77161 4.12384
thorax -0.711616 -2.56275 6.31043
lowerneck -1.33724 11.5166 12.1204
upperneck 16.1059 18.2969 -20.5262
head 8.26593 8.28862 -7.15427
rclavicle -6.36111e-015 -1.90833e-014
rhumerus -31.8759 -13.3225 -43.706
rradius 38.505
rwrist -11.971
rhand -17.7312 32.4706
rfingers 7.12502
rthumb 8.52973 2.66284
lclavicle -6.36111e-015 -1.90833e-014
lhumerus -24.8275 -21.609 68.9551
lradius 47.6512
lwrist -8.69177
lhand -4.05942 18.7269
lfingers 7.12502
lthumb 21.6969 47.5311
rfemur -37.2074 -0.867514 5.90433
rtibia 75.9306
rfoot -7.24229 -16.8344
rtoes 20.5492
lfemur -19.6193 2.72743 -26.9908
ltibia 38.6262
lfoot -10.7955 -3.89852
ltoes -12.8601
345
root 5.55232 17.4138 2.06206 -20.1061 -44.7295 22.2303
lowerback 13.0444 -3.43357 -1.81979
upperback 5.72002 -4.82901 4.23916
thorax -0.743772 -2.57988 6.10596
lowerneck -1.18121 11.4812 11.8772
upperneck 16.6537 18.3497 -20.5075
head 8.40334 8.28132 -7.12532
rclavicle 1.11319e-014 -7.31528e-014
rhumerus -32.0318 -13.4782 -43.158
rradius 38.2372
rwrist -11.5445
rhand -18.309 32.3163
rfingers 7.12502
rthumb 7.9721 2.48666
lclavicle 1.11319e-014 -7.31528e-014
lhumerus -24.9631 -22.069 69.1731
lradius 47.8774
lwrist -8.7753
lhand -6.13804 19.1513
lfingers 7.12502
lthumb 19.6997 48.1731
rfemur -37.2871 -0.637547 6.4053
rtibia 76.2789
rfoot -8.07848 -17.0665
rtoes 22.0943
lfemur -19.0809 2.60558 -26.9155
ltibia 38.8038
lfoot -11.2567 -4.20082
ltoes -10.6302
